<svg xmlns="http://www.w3.org/2000/svg" viewBox="0 0 480 360" role="img" aria-label="Dental Filling">
  <defs>
    <linearGradient id="bg" x1="0" x2="1" y1="0" y2="1">
      <stop offset="0%" stop-color="#eef0ff"/>
      <stop offset="100%" stop-color="#b2b6f6"/>
    </linearGradient>
  </defs>
  <rect width="480" height="360" rx="24" fill="url(#bg)"/>
  <path d="M170 84c0-34 30-60 70-60s70 26 70 60v56c0 56-28 116-70 116s-70-60-70-116V84z" fill="#fff"/>
  <rect x="214" y="118" width="52" height="58" rx="10" fill="#7a63d2"/>
  <path d="M268 136c30 0 46 24 46 48 0 20-14 48-42 48" fill="none" stroke="#5a49b3" stroke-width="16" stroke-linecap="round"/>
  <circle cx="344" cy="114" r="28" fill="#5a49b3"/>
  <path d="M344 90l8 16 16 8-16 8-8 16-8-16-16-8 16-8z" fill="#fff"/>
  <text x="240" y="318" text-anchor="middle" font-family="Arial, sans-serif" font-size="28" font-weight="700" fill="#0f2a40">Filling</text>
</svg>
