<svg xmlns="http://www.w3.org/2000/svg" viewBox="0 0 480 360" role="img" aria-label="Endodontic Treatment">
  <defs>
    <linearGradient id="bg" x1="0" x2="1" y1="0" y2="1">
      <stop offset="0%" stop-color="#fff0df"/>
      <stop offset="100%" stop-color="#f2b56b"/>
    </linearGradient>
  </defs>
  <rect width="480" height="360" rx="24" fill="url(#bg)"/>
  <path d="M188 84c0-36 24-64 52-64s52 28 52 64v44c0 66-20 132-52 132s-52-66-52-132V84z" fill="#fff"/>
  <path d="M240 120v102" stroke="#d46a2c" stroke-width="18" stroke-linecap="round"/>
  <path d="M240 222c0 24-18 42-42 42h-20" fill="none" stroke="#d46a2c" stroke-width="18" stroke-linecap="round"/>
  <path d="M240 222c0 24 18 42 42 42h20" fill="none" stroke="#d46a2c" stroke-width="18" stroke-linecap="round"/>
  <path d="M330 100c20 0 36 16 36 36s-16 36-36 36-36-16-36-36 16-36 36-36z" fill="#d46a2c"/>
  <text x="240" y="318" text-anchor="middle" font-family="Arial, sans-serif" font-size="28" font-weight="700" fill="#0f2a40">Root Canal</text>
</svg>
